<svg width="376" height="376" viewBox="0 0 376 376" fill="none" xmlns="http://www.w3.org/2000/svg">
<path d="M187.344 166.825C214.216 166.825 236.198 144.84 236.198 117.973C236.198 90.2889 214.216 68.3061 187.344 68.3061C160.477 68.3061 138.492 90.2889 138.492 117.973C138.489 144.842 160.475 166.825 187.344 166.825ZM187.344 154.613C192.161 154.633 196.935 153.699 201.39 151.865C205.844 150.031 209.891 147.333 213.298 143.927C216.704 140.52 219.402 136.473 221.236 132.018C223.071 127.564 224.005 122.79 223.984 117.973C224.005 113.155 223.071 108.382 221.236 103.927C219.402 99.4727 216.704 95.4254 213.298 92.019C209.891 88.6126 205.844 85.9145 201.39 84.0803C196.935 82.2461 192.161 81.3122 187.344 81.3325C182.527 81.3125 177.753 82.2466 173.299 84.0809C168.845 85.9152 164.798 88.6134 161.392 92.0198C157.985 95.4262 155.288 99.4733 153.453 103.928C151.619 108.382 150.686 113.156 150.706 117.973C150.685 122.79 151.618 127.564 153.452 132.019C155.286 136.473 157.984 140.521 161.39 143.927C164.797 147.334 168.844 150.032 173.298 151.866C177.753 153.7 182.527 154.634 187.344 154.613ZM187.344 143.213C202.001 143.213 213.401 131.814 213.401 117.973C213.401 103.318 202.001 91.9178 187.344 91.9178C173.503 91.9178 161.289 103.318 161.289 117.973C161.289 131.816 173.501 143.213 187.344 143.213ZM187.344 131.816C194.672 131.816 201.187 125.3 201.187 117.975C201.187 109.833 194.672 104.134 187.344 104.134C180.016 104.134 173.503 109.833 173.503 117.975C173.501 125.3 180.016 131.816 187.344 131.816Z" stroke="white" stroke-width="3" stroke-miterlimit="2.613"/>
<path d="M145.568 75.0207L231.063 159.701M187.907 57.1099V177.614M145.568 158.887L231.063 74.2084M129.284 115.733L249.786 116.548M113 34.3127L135.797 22.9129M149.638 18.0264L178.949 11.5132M195.235 11.5132L226.989 17.2119M238.386 22.0985L262 34.3127M196.864 5H178.136C175.693 5 174.879 5 174.879 7.44328V17.2142C174.879 21.2841 174.879 21.2841 178.949 21.2841H197.676C199.3 21.2841 200.931 21.2841 200.931 17.2142V8.2577C200.934 5.81443 200.934 5 196.864 5ZM242.46 14.7687L224.548 9.88434C222.102 9.06991 221.292 9.06991 220.478 11.5132C219.663 13.142 218.032 18.8408 217.218 20.4697C216.403 24.5396 216.403 24.5396 220.478 26.1684C224.548 26.9828 236.762 30.2383 238.386 31.0528C240.015 31.8672 241.646 31.8672 242.46 27.795C243.275 24.5396 244.902 20.4674 244.902 18.8386C245.716 17.2142 246.53 15.5853 242.46 14.7687ZM151.267 9.07213L133.354 14.7709C130.096 15.5853 129.282 16.3997 130.096 18.0286C130.911 20.4719 129.282 27.7995 132.54 27.7995C136.609 27.7995 134.166 31.8694 138.238 30.2428C141.494 29.4283 154.522 25.3584 156.151 25.3584C157.78 24.544 158.595 23.7296 157.78 20.4741C156.966 17.2164 156.151 13.1465 155.337 11.5176C154.525 9.88433 154.525 8.25548 151.267 9.07213Z" stroke="white" stroke-width="3" stroke-miterlimit="2.613"/>
<path fill-rule="evenodd" clip-rule="evenodd" d="M187.455 177.86C195.372 177.878 203.215 176.332 210.534 173.31C217.852 170.289 224.502 165.851 230.101 160.253C235.699 154.654 240.137 148.005 243.159 140.687C246.18 133.368 247.727 125.525 247.709 117.608C247.727 109.69 246.18 101.847 243.159 94.5287C240.137 87.2104 235.699 80.5611 230.101 74.9626C224.502 69.3641 217.852 64.9267 210.534 61.9052C203.215 58.8837 195.372 57.3377 187.455 57.3558C179.537 57.338 171.694 58.8842 164.376 61.9059C157.058 64.9275 150.409 69.3649 144.81 74.9634C139.212 80.5618 134.774 87.211 131.753 94.5292C128.731 101.847 127.185 109.69 127.203 117.608C127.185 125.525 128.731 133.368 131.753 140.686C134.774 148.004 139.212 154.654 144.81 160.252C150.409 165.85 157.058 170.288 164.376 173.309C171.694 176.331 179.537 177.877 187.455 177.86Z" stroke="white" stroke-width="4" stroke-miterlimit="2.613"/>
<path fill-rule="evenodd" clip-rule="evenodd" d="M81.091 373.731H98.3279V307.967H81.091V373.731ZM180.218 307.967L165.565 354.941L150.91 307.967H125.049V373.731H138.842V317.362L156.946 373.731H175.045L192.287 319.711V373.731H205.217V307.967H180.218ZM260.379 375.295C230.209 375.295 225.901 351.026 225.901 339.282C225.901 327.54 231.071 304.835 260.379 304.835C289.687 304.835 294.862 327.54 294.862 339.282C294.862 351.026 290.549 375.295 260.379 375.295ZM277.618 341.633C277.618 322.843 270.726 315.013 259.517 315.013C248.311 315.013 241.415 322.843 241.415 341.633C241.415 358.074 250.037 364.336 259.517 364.336C269.001 364.334 277.618 358.074 277.618 341.633ZM51.7832 39.4405C64.7115 33.1758 85.3996 15.1713 88.8484 0.294922C72.4713 2.64417 53.5053 26.1302 51.7832 39.4405Z" fill="white"/>
<path fill-rule="evenodd" clip-rule="evenodd" d="M76.78 30.8266C71.6068 41.7876 45.7502 65.2736 34.5416 68.4038C33.6794 44.9178 37.1282 24.5619 50.0565 15.1692C50.9187 26.1302 48.3321 48.0501 44.8833 51.9634C55.2297 41.0045 69.0225 33.1758 76.78 30.8266Z" fill="white"/>
<path fill-rule="evenodd" clip-rule="evenodd" d="M25.0597 36.3081C30.2329 41.7876 34.5416 71.5383 31.9573 84.0633C39.7148 73.8854 45.7502 68.4059 53.5053 65.2736C54.3675 74.6685 40.577 94.2412 31.0951 104.419C28.5085 106.768 27.6463 110.682 27.6463 110.682C25.9219 103.636 17.3023 83.2823 17.3023 68.4059C17.3023 62.1434 21.6133 43.3537 25.0597 36.3081Z" fill="white"/>
<path fill-rule="evenodd" clip-rule="evenodd" d="M31.0951 153.74C31.0951 152.174 33.6817 142.779 36.266 139.649C38.8526 137.3 42.299 129.471 45.7478 123.209C50.0565 116.163 52.6431 100.504 51.7809 91.8941C43.1636 97.3714 28.5085 121.643 27.6463 131.821C25.0597 112.248 12.1314 83.2823 6.95824 77.8029C-1.6614 93.4581 10.407 131.821 31.0951 153.74Z" fill="white"/>
<path fill-rule="evenodd" clip-rule="evenodd" d="M38.8526 178.793C37.1282 165.485 44.0234 138.083 51.7832 127.905C57.8163 138.083 57.8163 154.524 54.3698 159.222C51.7832 163.918 48.3368 177.227 49.199 182.708C50.0612 188.973 48.3368 198.365 49.199 200.715C38.8549 192.103 20.7534 177.227 16.4448 171.747C12.1338 166.268 0.0653438 134.951 0.929893 122.426C11.2692 131.821 28.5085 158.437 38.8526 178.793Z" fill="white"/>
<path fill-rule="evenodd" clip-rule="evenodd" d="M65.5737 222.632C61.2651 213.24 53.5053 188.185 60.4029 170.181C69.0225 178.007 72.4713 195.231 71.6091 202.279C70.7469 208.543 71.6091 224.199 80.2288 232.813C56.0919 225.765 35.4061 218.721 25.9243 208.543C15.5802 199.149 5.23619 176.446 5.23619 171.747C17.3023 178.793 53.5053 210.107 65.5737 222.632Z" fill="white"/>
<path fill-rule="evenodd" clip-rule="evenodd" d="M106.088 242.988C93.1594 232.81 77.6422 218.719 76.78 199.146C95.7437 210.89 106.088 225.765 112.121 234.377C118.156 242.988 123.327 245.338 123.327 245.338C106.088 253.166 83.6752 254.732 66.4359 250.817C50.0588 246.121 26.7841 228.897 24.1975 220.283C33.6794 223.416 60.4005 229.678 69.0202 234.374C76.78 239.073 99.1925 244.554 106.088 242.988ZM325.89 39.4405C312.964 33.1758 292.274 15.1713 287.965 0.294922C304.342 2.64417 323.308 26.1302 325.89 39.4405Z" fill="white"/>
<path fill-rule="evenodd" clip-rule="evenodd" d="M300.033 30.8266C306.066 41.7876 331.061 65.2736 342.272 68.4038C343.991 44.9178 339.683 24.5619 327.617 15.1692C326.754 26.1302 328.479 48.0501 332.787 51.9634C321.581 41.0045 308.651 33.1758 300.033 30.8266Z" fill="white"/>
<path fill-rule="evenodd" clip-rule="evenodd" d="M352.613 36.3081C347.443 41.7876 342.272 71.5383 345.716 84.0633C337.956 73.8854 331.061 68.4059 324.168 65.2736C323.306 74.6685 336.236 94.2412 345.716 104.419C349.162 106.768 349.162 110.682 349.162 110.682C351.751 103.636 360.371 83.2823 360.371 68.4059C360.373 62.1434 355.198 43.3537 352.613 36.3081Z" fill="white"/>
<path fill-rule="evenodd" clip-rule="evenodd" d="M345.718 153.74C346.58 152.174 343.994 142.779 341.41 139.649C337.958 137.3 335.376 129.471 331.063 123.209C327.617 116.163 325.035 100.504 325.892 91.8941C334.514 97.3735 349.165 121.643 350.027 131.821C352.616 112.248 364.682 83.2823 370.717 77.8029C378.475 93.4581 366.406 131.821 345.718 153.74Z" fill="white"/>
<path fill-rule="evenodd" clip-rule="evenodd" d="M338.821 178.793C339.683 165.485 332.788 138.083 325.89 127.905C318.992 138.083 319.857 154.524 322.443 159.222C325.032 163.918 328.477 177.227 328.477 182.708C327.614 188.973 328.477 198.365 328.477 200.715C337.956 192.103 356.058 177.227 360.371 171.747C364.372 166.662 375.059 139.329 375.886 125.409V122.426C365.544 131.821 349.162 158.437 338.821 178.793Z" fill="white"/>
<path fill-rule="evenodd" clip-rule="evenodd" d="M311.24 222.632C316.41 213.24 323.308 188.185 317.273 170.181C307.788 178.007 305.204 195.231 306.066 202.279C306.066 208.543 306.066 224.199 297.444 232.813C320.717 225.765 341.407 218.721 351.749 208.543C362.091 199.149 371.575 176.446 372.439 171.747C360.373 178.793 323.308 210.107 311.24 222.632Z" fill="white"/>
<path fill-rule="evenodd" clip-rule="evenodd" d="M271.585 242.988C284.516 232.81 299.171 218.719 300.033 199.146C281.932 210.89 271.585 225.765 265.555 234.377C259.517 242.988 253.482 245.338 253.482 245.338C271.583 253.166 293.998 254.732 310.375 250.817C327.614 246.121 350.887 228.897 353.476 220.283C343.129 223.416 317.273 229.678 308.651 234.374C300.033 239.073 278.483 244.554 271.585 242.988ZM188.838 260.212C208.664 260.212 224.176 282.132 230.212 290.743L238.834 282.915C237.109 281.351 221.594 266.474 206.939 259.429C220.732 253.164 237.109 275.086 267.279 272.737C281.072 271.954 302.62 268.041 307.791 260.212C304.344 260.993 289.689 264.908 276.763 260.993C258.662 254.73 237.971 248.468 225.905 249.251C214.699 249.251 195.735 249.251 188.84 252.381C181.083 249.251 162.981 249.251 150.913 249.251C139.706 248.468 118.159 254.73 100.917 260.993C87.9886 264.908 72.4737 260.993 69.0249 260.212C75.0579 268.041 96.6082 271.954 109.539 272.737C140.569 275.086 156.948 253.164 170.739 259.429C155.224 266.474 139.709 281.349 138.844 282.915L147.464 290.743C153.495 282.134 169.012 260.212 188.838 260.212Z" fill="white"/>
<path fill-rule="evenodd" clip-rule="evenodd" d="M173.32 118.51C164.701 121.641 155.219 120.86 155.219 120.86C158.668 127.905 156.081 129.471 156.081 132.602C156.081 135.734 156.943 142.779 156.943 144.344C156.943 145.91 150.908 143.56 149.186 143.56C147.462 143.56 145.737 146.693 142.288 143.56C139.702 139.647 136.255 139.647 134.531 138.081C132.809 136.515 137.118 134.168 138.84 132.602C140.564 131.035 144.875 131.035 144.013 125.556C144.013 120.86 139.704 115.378 144.875 115.378C150.046 115.378 152.632 115.378 152.632 111.465C152.632 107.551 160.39 102.07 162.976 100.504C164.701 98.1545 168.15 97.3735 172.458 100.504C175.907 103.636 172.458 103.636 177.631 102.07C182.802 99.7207 180.218 94.2434 182.802 94.2434C186.251 94.2434 193.149 103.636 196.595 102.07C200.042 100.504 197.457 94.2434 203.493 97.3736C209.528 100.504 219.87 103.636 219.87 109.116C219.87 114.595 225.903 119.293 219.008 121.643C211.253 123.992 211.253 132.604 211.253 134.951C211.253 136.517 212.972 139.649 215.561 142.779C218.145 145.912 215.561 146.693 212.11 149.825C208.664 152.174 205.217 156.873 206.077 159.22C206.939 161.569 209.528 167.832 200.044 164.699C191.427 161.569 192.289 152.957 187.978 151.391C184.529 150.608 179.358 147.478 180.22 143.563C181.083 139.649 184.529 137.3 187.116 136.517C214.699 134.168 200.906 128.688 197.46 127.905C188.84 123.992 216.423 108.335 186.253 106.768C175.907 105.985 175.907 121.643 173.32 118.51ZM204.355 73.1023C208.664 80.1479 209.526 87.9766 215.561 90.3258C220.732 91.892 227.63 95.8052 230.212 97.3714C231.936 99.7207 235.387 103.634 235.387 98.9376C235.387 95.0243 228.49 77.0177 204.355 73.1023ZM200.042 61.3603C200.042 61.3603 198.322 64.4927 200.042 66.8419C201.766 69.9721 204.355 68.4059 205.217 65.2757C205.217 62.9265 200.042 57.4471 198.32 59.7963L200.042 61.3603Z" fill="white"/>
<path fill-rule="evenodd" clip-rule="evenodd" d="M92.2972 30.8266C100.055 24.5619 112.121 26.1302 118.156 33.1758C122.465 38.6552 121.603 43.3537 121.603 44.9199C121.603 46.4839 121.603 48.0501 123.327 48.8332L126.776 51.9634C128.498 52.7465 131.084 55.0957 134.533 51.9634L144.877 42.5707L153.495 51.1824L142.288 62.1434L151.77 70.7552C143.151 76.2346 137.977 84.0633 136.255 84.8464L125.911 74.6685L112.981 86.4104L104.361 79.3648C108.672 73.8854 112.981 71.5361 113.843 69.1869C114.705 66.8376 117.292 66.0546 114.705 62.9222C110.394 55.8766 106.085 59.009 108.672 58.2259C104.361 59.009 96.6035 59.009 90.5705 52.7464C83.6752 45.703 87.124 35.5251 92.2972 30.8266ZM95.7437 48.8332C100.915 53.5317 106.088 54.3126 111.259 50.3993C116.429 46.4839 116.429 43.3537 112.981 37.0891C111.259 32.3927 101.774 30.8266 97.4657 34.7398C93.1571 38.6531 93.1571 46.4839 95.7437 48.8332ZM285.378 31.6118C291.411 38.6574 289.687 49.6163 281.932 55.0978C275.899 59.0111 270.726 58.2301 269.001 58.2301C267.277 58.2301 265.555 58.2301 264.693 59.7963L261.241 62.9265C259.517 64.4927 257.795 66.8419 261.241 69.9721C264.693 72.3214 271.583 79.367 271.583 79.367L262.104 87.1956L250.035 76.2346L240.556 84.8464C234.523 77.0177 225.901 72.3192 225.038 70.7552L236.245 61.3603L223.319 49.6184L231.936 41.7897C237.107 45.703 240.558 49.6184 242.278 50.4015C244.867 51.9655 245.729 53.5338 249.175 51.9655C256.935 47.2691 254.346 44.1368 254.346 45.703C253.484 42.5728 253.484 35.5251 260.379 30.0456C268.139 23.781 279.345 26.9133 285.378 31.6118ZM264.693 34.742C260.379 38.6552 258.659 44.1368 262.968 48.8332C267.277 53.5295 270.728 52.7464 277.618 50.3993C282.794 48.8332 285.378 41.0045 280.207 36.3081C276.761 32.3927 268.139 31.6118 264.693 34.742ZM187.976 210.107C198.322 214.804 206.077 216.372 215.561 217.936C225.041 218.719 244.004 212.457 247.451 210.107C250.902 207.758 261.244 203.843 268.141 203.843C274.174 203.843 280.21 205.409 284.518 205.409C283.656 203.843 283.656 188.968 286.243 183.489C288.827 177.224 294.865 163.133 295.722 148.259C297.447 133.382 285.381 111.463 281.934 108.332C279.345 105.202 276.763 102.853 275.037 105.202C274.174 108.332 264.695 122.426 263.83 127.122C262.106 131.821 262.968 143.563 262.106 152.174C261.244 160.786 264.695 158.439 267.277 156.09C269.866 152.957 272.448 149.825 274.174 147.478C276.763 156.09 272.45 165.485 269.866 170.183C268.141 174.879 265.557 172.532 262.106 170.966C258.659 168.617 240.558 150.61 240.558 150.61C237.107 155.307 229.349 162.352 225.041 165.485C232.801 172.53 244.867 185.055 246.593 186.621C248.313 188.188 249.178 190.535 244.869 192.103C237.109 196.016 229.352 197.582 220.734 195.233C222.459 192.103 221.597 193.669 224.181 190.537C226.77 187.407 226.77 186.624 222.461 185.84C217.286 185.057 213.839 182.708 205.222 183.491C196.6 184.274 187.98 189.756 187.98 189.756C187.98 189.756 178.498 184.274 170.741 183.491C162.121 182.708 158.672 185.055 153.502 185.84C149.193 186.624 148.331 187.407 151.78 190.537C154.366 193.669 153.502 192.103 155.226 195.233C145.744 197.585 138.849 196.016 131.091 192.103C125.921 190.537 126.783 188.188 128.505 186.621C130.229 185.055 142.298 172.53 150.917 165.485C146.609 162.352 138.849 155.307 135.402 150.61C135.402 150.61 117.301 168.615 113.852 170.966C110.403 172.532 107.819 174.879 106.095 170.183C103.508 165.485 99.1995 156.092 101.786 147.478C103.511 149.827 106.095 152.957 108.684 156.09C111.27 158.439 114.717 160.786 113.855 152.174C112.992 143.563 112.992 131.821 112.13 127.122C110.406 122.426 101.786 108.332 100.064 105.202C98.3397 102.853 96.6153 105.202 93.1665 108.332C90.5799 111.465 78.5138 133.385 79.3736 148.259C81.098 163.133 87.1311 177.224 89.7177 183.489C92.3043 188.968 92.3043 203.843 91.4421 205.409C94.8909 205.409 101.786 203.843 107.819 203.843C113.852 203.843 125.058 207.758 127.645 210.107C131.092 212.457 150.058 218.719 159.539 217.936C169.874 216.372 177.632 214.804 187.976 210.107Z" fill="white"/>
</svg>
